HIERARCHY
ROOT hips_dup
{
	OFFSET 38.994835 108.019676 230.402130
	CHANNELS 6 Xposition Yposition Zposition Zrotation Yrotation Xrotation
	JOINT l_hip_dup
	{
		OFFSET 0.100000 0.000000 0.000000
		CHANNELS 3 Zrotation Yrotation Xrotation
		JOINT l_thigh_dup
		{
			OFFSET 7.071068 -7.071068 0.000000
			CHANNELS 3 Zrotation Yrotation Xrotation
			JOINT l_knee_dup
			{
				OFFSET 0.000020 -50.000011 0.000000
				CHANNELS 3 Zrotation Yrotation Xrotation
				JOINT l_foot_dup
				{
					OFFSET 0.000022 -46.844974 0.000000
					CHANNELS 3 Zrotation Yrotation Xrotation
					JOINT l_toes_dup
					{
						OFFSET 0.000004 -3.481765 12.994138
						CHANNELS 3 Zrotation Yrotation Xrotation
						End l_toes_End_dup
						{
							OFFSET 0.000000 0.000003 9.999998
						}
					}
				}
			}
		}
	}
	JOINT r_hip_dup
	{
		OFFSET 0.100000 0.000000 0.000000
		CHANNELS 3 Zrotation Yrotation Xrotation
		JOINT r_thigh_dup
		{
			OFFSET -7.071067 -7.071068 0.000000
			CHANNELS 3 Zrotation Yrotation Xrotation
			JOINT r_knee_dup
			{
				OFFSET 0.000026 -50.000000 -0.000000
				CHANNELS 3 Zrotation Yrotation Xrotation
				JOINT r_foot_dup
				{
					OFFSET 0.000021 -46.844951 0.000000
					CHANNELS 3 Zrotation Yrotation Xrotation
					JOINT r_toes_dup
					{
						OFFSET 0.000006 -3.481758 12.994106
						CHANNELS 3 Zrotation Yrotation Xrotation
						End r_toes_End_dup
						{
							OFFSET 0.000000 -0.000003 9.999996
						}
					}
				}
			}
		}
	}
	JOINT spine1_dup
	{
		OFFSET 0.000000 0.099998 0.000000
		CHANNELS 3 Zrotation Yrotation Xrotation
		JOINT spine2_dup
		{
			OFFSET 0.000001 10.421844 0.000000
			CHANNELS 3 Zrotation Yrotation Xrotation
			JOINT spine3_dup
			{
				OFFSET 0.000001 10.421852 0.000000
				CHANNELS 3 Zrotation Yrotation Xrotation
				JOINT spine4_dup
				{
					OFFSET 0.000001 10.421829 -0.000000
					CHANNELS 3 Zrotation Yrotation Xrotation
					JOINT neck1_dup
					{
						OFFSET 0.000001 10.421814 0.000000
						CHANNELS 3 Zrotation Yrotation Xrotation
						JOINT neck2_dup
						{
							OFFSET 0.000000 5.749954 -0.000000
							CHANNELS 3 Zrotation Yrotation Xrotation
							JOINT head_dup
							{
								OFFSET 0.000000 5.749924 0.000000
								CHANNELS 3 Zrotation Yrotation Xrotation
								End head_End_dup
								{
									OFFSET 0.000000 11.499686 -0.000000
								}
							}
						}
					}
					JOINT l_clavicle_dup
					{
						OFFSET 0.000000 10.421844 0.000000
						CHANNELS 3 Zrotation Yrotation Xrotation
						JOINT l_shoulder_dup
						{
							OFFSET 17.847798 3.850716 -0.981963
							CHANNELS 3 Zrotation Yrotation Xrotation
							JOINT l_elbow_dup
							{
								OFFSET 30.849020 0.000016 -0.000001
								CHANNELS 3 Zrotation Yrotation Xrotation
								JOINT l_hand_dup
								{
									OFFSET 30.320339 0.000015 -0.000002
									CHANNELS 3 Zrotation Yrotation Xrotation
									End l_hand_End_dup
									{
										OFFSET 14.999237 0.000010 0.000000
									}
								}
							}
						}
					}
					JOINT r_clavicle_dup
					{
						OFFSET 0.000000 10.421844 0.000000
						CHANNELS 3 Zrotation Yrotation Xrotation
						JOINT r_shoulder_dup
						{
							OFFSET -18.112579 2.260853 -1.076626
							CHANNELS 3 Zrotation Yrotation Xrotation
							JOINT r_elbow_dup
							{
								OFFSET -30.849059 0.000005 0.000001
								CHANNELS 3 Zrotation Yrotation Xrotation
								JOINT r_hand_dup
								{
									OFFSET -30.627892 0.000005 0.000004
									CHANNELS 3 Zrotation Yrotation Xrotation
									End r_hand_End_dup
									{
										OFFSET -14.999262 0.000003 0.000000
									}
								}
							}
						}
					}
				}
			}
		}
	}
}
MOTION
Frames: 13
Frame Time: 0.033333
0.0000 0.0000 0.0000 0.0000 0.0000 0.0000 0.0000 0.0000 0.0000 0 0 0 1.19271e-15 3.97569e-16 4.13804e-33 -9.93923e-16 -4.52235e-15 -3.15571e-15 0.0000 0.0000 0.0000 0.0000 0.0000 0.0000 -7.95139e-16 1.59028e-15 -1.10348e-32 1.19271e-15 -2.38542e-15 -6.26172e-15 -3.97569e-16 -1.98785e-16 1.2598e-14 0.0000 0.0000 0.0000 0.0000 0.0000 0.0000 0.0000 0.0000 0.0000 0.0000 0.0000 0.0000 0.0000 0.0000 0.0000 0.0000 0.0000 0.0000 0.0000 0.0000 0.0000 0.0000 0.0000 0.0000 0.0000 0.0000 0.0000 -1.18624e-31 -8.54774e-15 1.59028e-15 -1.18624e-31 1.11319e-14 -1.59028e-15 -1.98785e-16 -1.19271e-14 -1.98785e-16 0.0000 0.0000 0.0000 -6.95746e-16 -2.95071e-15 2.98177e-16 2.28602e-15 -3.50979e-15 -2.98177e-16 -1.98785e-15 4.32357e-15 -2.29316e-32 
0.0000 0.0000 0.0000 0.0000 0.0000 0.0000 0.0000 0.0000 0.0000 0.0104062 0.203392 0.0377844 0.0315753 -0.0580109 0.119726 -0.0339113 -0.19259 -0.171987 0.0000 0.0000 0.0000 0.0000 0.0000 0.0000 0.0267754 -0.0803552 -0.0963676 0.00301235 -0.362628 0.201578 -0.0795075 0.758502 -0.126698 0.0000 0.0000 0.0000 0.0000 0.0000 0.0000 0.0000 0.0000 0.0000 0.0000 0.0000 0.0000 0.0000 0.0000 0.0000 0.0000 0.0000 0.0000 0.0000 0.0000 0.0000 0.0000 0.0000 0.0000 0.0000 0.0000 0.0000 0.0717996 0.0238162 0.122894 -0.0471561 0.000787208 -0.0304095 0.243513 0.0817726 -0.161607 0.0000 0.0000 0.0000 0.0390339 0.086874 -0.0941891 -0.0855854 0.0503354 0.0193618 -0.0584337 -0.0632068 -0.111351 
0.0000 0.0000 0.0000 0.0000 0.0000 0.0000 0.0000 0.0000 0.0000 0.00484777 0.448794 0.0647033 0.0813898 -0.175306 0.254412 -0.0705756 -0.36863 -0.350292 0.0000 0.0000 0.0000 0.0000 0.0000 0.0000 -0.0083574 -0.415417 0.102754 0.0662563 -0.310142 0.075679 -0.109618 1.30055 -0.2161 0.0000 0.0000 0.0000 0.0000 0.0000 0.0000 0.0000 0.0000 0.0000 0.0000 0.0000 0.0000 0.0000 0.0000 0.0000 0.0000 0.0000 0.0000 0.0000 0.0000 0.0000 0.0000 0.0000 0.0000 0.0000 0.0000 0.0000 0.112027 0.0429018 0.269054 -0.0554301 0.0142537 -0.0280176 0.519995 0.177188 -0.313831 0.0000 0.0000 0.0000 0.0723319 0.183564 -0.144542 -0.123038 0.0738771 0.0373128 -0.0587921 -0.0869358 -0.168106 
0.0000 0.0000 0.0000 0.0000 0.0000 0.0000 0.0000 0.0000 0.0000 -0.000692804 0.693282 0.0788731 0.118874 -0.274873 0.410034 -0.0961078 -0.554992 -0.53214 0.0000 0.0000 0.0000 0.0000 0.0000 0.0000 -0.0602826 -0.756822 0.255947 0.135482 -0.0986928 -0.0333636 -0.109433 1.62237 -0.260425 0.0000 0.0000 0.0000 0.0000 0.0000 0.0000 0.0000 0.0000 0.0000 0.0000 0.0000 0.0000 0.0000 0.0000 0.0000 0.0000 0.0000 0.0000 0.0000 0.0000 0.0000 0.0000 0.0000 0.0000 0.0000 0.0000 0.0000 0.188471 0.0664656 0.434685 -0.100464 0.0195238 -0.000431868 0.7206 0.274946 -0.372733 0.0000 0.0000 0.0000 0.115431 0.285974 -0.17582 -0.151009 0.0705735 0.0603408 0.0269493 -0.0650817 -0.108525 
0.0000 0.0000 0.0000 0.0000 0.0000 0.0000 0.0000 0.0000 0.0000 0.00372811 0.920978 0.0804999 0.136555 -0.401213 0.576417 -0.112469 -0.688833 -0.704908 0.0000 0.0000 0.0000 0.0000 0.0000 0.0000 -0.135438 -1.02179 0.381064 0.222192 0.145971 -0.140146 -0.106736 1.78548 -0.265584 0.0000 0.0000 0.0000 0.0000 0.0000 0.0000 0.0000 0.0000 0.0000 0.0000 0.0000 0.0000 0.0000 0.0000 0.0000 0.0000 0.0000 0.0000 0.0000 0.0000 0.0000 0.0000 0.0000 0.0000 0.0000 0.0000 0.0000 0.257521 0.0869844 0.59509 -0.126415 0.0347475 0.0485431 0.770089 0.322517 -0.286357 0.0000 0.0000 0.0000 0.158816 0.36374 -0.239335 -0.170428 0.0778116 0.111154 0.147336 -0.0431366 0.0207223 
0.0000 0.0000 0.0000 0.0000 0.0000 0.0000 0.0000 0.0000 0.0000 0.0160871 1.07148 0.0693145 0.141959 -0.481047 0.756344 -0.126506 -0.781042 -0.86964 0.0000 0.0000 0.0000 0.0000 0.0000 0.0000 -0.228249 -1.18158 0.45711 0.338728 0.284262 -0.213705 -0.127083 1.92431 -0.275874 0.0000 0.0000 0.0000 0.0000 0.0000 0.0000 0.0000 0.0000 0.0000 0.0000 0.0000 0.0000 0.0000 0.0000 0.0000 0.0000 0.0000 0.0000 0.0000 0.0000 0.0000 0.0000 0.0000 0.0000 0.0000 0.0000 0.0000 0.3452 0.109262 0.73502 -0.159342 0.0478842 0.111237 0.633186 0.344341 -0.105186 0.0000 0.0000 0.0000 0.205132 0.4074 -0.343396 -0.186687 0.106378 0.162886 0.221989 -0.0484281 0.136511 
0.0000 0.0000 0.0000 0.0000 0.0000 0.0000 0.0000 0.0000 0.0000 0.0310533 1.15261 0.0645609 0.147095 -0.526397 0.918667 -0.143855 -0.835513 -1.02759 0.0000 0.0000 0.0000 0.0000 0.0000 0.0000 -0.313414 -1.16363 0.487643 0.445707 0.272734 -0.231441 -0.161467 2.02956 -0.315305 0.0000 0.0000 0.0000 0.0000 0.0000 0.0000 0.0000 0.0000 0.0000 0.0000 0.0000 0.0000 0.0000 0.0000 0.0000 0.0000 0.0000 0.0000 0.0000 0.0000 0.0000 0.0000 0.0000 0.0000 0.0000 0.0000 0.0000 0.40174 0.152417 0.860919 -0.155304 0.0356402 0.150438 0.415337 0.368661 0.107846 0.0000 0.0000 0.0000 0.254108 0.426863 -0.49564 -0.191857 0.137811 0.200558 0.213532 -0.0776036 0.13681 
0.0000 0.0000 0.0000 0.0000 0.0000 0.0000 0.0000 0.0000 0.0000 0.0356231 1.17096 0.0737632 0.157799 -0.566667 1.05097 -0.156333 -0.831791 -1.17457 0.0000 0.0000 0.0000 0.0000 0.0000 0.0000 -0.36768 -1.12424 0.5076 0.517841 0.272483 -0.236153 -0.202829 2.10788 -0.378124 0.0000 0.0000 0.0000 0.0000 0.0000 0.0000 0.0000 0.0000 0.0000 0.0000 0.0000 0.0000 0.0000 0.0000 0.0000 0.0000 0.0000 0.0000 0.0000 0.0000 0.0000 0.0000 0.0000 0.0000 0.0000 0.0000 0.0000 0.465075 0.206693 0.967819 -0.161234 0.0197125 0.16024 0.268027 0.404226 0.240989 0.0000 0.0000 0.0000 0.307108 0.447459 -0.628085 -0.179081 0.139441 0.16639 0.145932 -0.144688 0.0452692 
0.0000 0.0000 0.0000 0.0000 0.0000 0.0000 0.0000 0.0000 0.0000 0.0360666 1.13765 0.111203 0.169987 -0.565297 1.13652 -0.164122 -0.827955 -1.3148 0.0000 0.0000 0.0000 0.0000 0.0000 0.0000 -0.386614 -1.09078 0.530208 0.538927 0.253352 -0.223887 -0.234916 2.20779 -0.473461 0.0000 0.0000 0.0000 0.0000 0.0000 0.0000 0.0000 0.0000 0.0000 0.0000 0.0000 0.0000 0.0000 0.0000 0.0000 0.0000 0.0000 0.0000 0.0000 0.0000 0.0000 0.0000 0.0000 0.0000 0.0000 0.0000 0.0000 0.502886 0.263079 1.04934 -0.186191 0.0169186 0.150555 0.2828 0.470548 0.25613 0.0000 0.0000 0.0000 0.361794 0.460778 -0.703923 -0.177429 0.134689 0.133255 0.101671 -0.243752 -0.0325791 
0.0000 0.0000 0.0000 0.0000 0.0000 0.0000 0.0000 0.0000 0.0000 0.0443186 1.06463 0.1726 0.173994 -0.554617 1.17687 -0.173927 -0.799275 -1.44502 0.0000 0.0000 0.0000 0.0000 0.0000 0.0000 -0.383758 -1.12284 0.56006 0.531959 0.243862 -0.19896 -0.267863 2.36353 -0.586843 0.0000 0.0000 0.0000 0.0000 0.0000 0.0000 0.0000 0.0000 0.0000 0.0000 0.0000 0.0000 0.0000 0.0000 0.0000 0.0000 0.0000 0.0000 0.0000 0.0000 0.0000 0.0000 0.0000 0.0000 0.0000 0.0000 0.0000 0.541679 0.326495 1.11397 -0.228339 0.0241371 0.124602 0.389532 0.527002 0.213856 0.0000 0.0000 0.0000 0.410613 0.450783 -0.722869 -0.177801 0.145726 0.14473 0.0995581 -0.294177 -0.0248868 
0.0000 0.0000 0.0000 0.0000 0.0000 0.0000 0.0000 0.0000 0.0000 0.0633856 0.96946 0.226925 0.161267 -0.550151 1.20764 -0.178356 -0.745137 -1.56066 0.0000 0.0000 0.0000 0.0000 0.0000 0.0000 -0.359569 -1.28969 0.59267 0.504709 0.288395 -0.161721 -0.304027 2.58987 -0.716837 0.0000 0.0000 0.0000 0.0000 0.0000 0.0000 0.0000 0.0000 0.0000 0.0000 0.0000 0.0000 0.0000 0.0000 0.0000 0.0000 0.0000 0.0000 0.0000 0.0000 0.0000 0.0000 0.0000 0.0000 0.0000 0.0000 0.0000 0.574221 0.387088 1.15246 -0.229065 0.0592753 0.135833 0.449589 0.565158 0.105904 0.0000 0.0000 0.0000 0.458555 0.430481 -0.692076 -0.181094 0.160959 0.158403 0.116394 -0.27697 0.0447337 
0.0000 0.0000 0.0000 0.0000 0.0000 0.0000 0.0000 0.0000 0.0000 0.0850943 0.858638 0.279079 0.137794 -0.53615 1.22441 -0.174249 -0.67393 -1.65091 0.0000 0.0000 0.0000 0.0000 0.0000 0.0000 -0.338436 -1.52982 0.617336 0.481665 0.338871 -0.105738 -0.336992 2.86967 -0.846601 0.0000 0.0000 0.0000 0.0000 0.0000 0.0000 0.0000 0.0000 0.0000 0.0000 0.0000 0.0000 0.0000 0.0000 0.0000 0.0000 0.0000 0.0000 0.0000 0.0000 0.0000 0.0000 0.0000 0.0000 0.0000 0.0000 0.0000 0.634049 0.447111 1.16361 -0.2523 0.101314 0.180112 0.459003 0.609228 -0.00666974 0.0000 0.0000 0.0000 0.49357 0.412536 -0.688212 -0.16292 0.164669 0.197 0.124766 -0.234685 0.092487 
0.0000 0.0000 0.0000 0.0000 0.0000 0.0000 0.0000 0.0000 0.0000 0.107808 0.781575 0.326887 0.106236 -0.558898 1.23819 -0.164684 -0.59012 -1.72616 0.0000 0.0000 0.0000 0.0000 0.0000 0.0000 -0.328438 -1.77527 0.615619 0.468391 0.457305 -0.0200938 -0.363104 3.06981 -0.971471 0.0000 0.0000 0.0000 0.0000 0.0000 0.0000 0.0000 0.0000 0.0000 0.0000 0.0000 0.0000 0.0000 0.0000 0.0000 0.0000 0.0000 0.0000 0.0000 0.0000 0.0000 0.0000 0.0000 0.0000 0.0000 0.0000 0.0000 0.658048 0.485106 1.15357 -0.265089 0.153804 0.229734 0.443719 0.681128 -0.0903274 0.0000 0.0000 0.0000 0.52844 0.37948 -0.692485 -0.14405 0.179673 0.212452 0.12928 -0.232952 0.132252 
